<?xml version="1.0" encoding="UTF-8" standalone="no"?>
<svg
   viewBox="0 0 100 100"
   width="100"
   height="100"
   version="1.1"
   id="svg396"
   sodipodi:docname="css3_lg.svg"
   inkscape:version="1.2.1 (9c6d41e, 2022-07-14)"
   xmlns:inkscape="http://www.inkscape.org/namespaces/inkscape"
   xmlns:sodipodi="http://sodipodi.sourceforge.net/DTD/sodipodi-0.dtd"
   xmlns="http://www.w3.org/2000/svg"
   xmlns:svg="http://www.w3.org/2000/svg">
  <defs
     id="defs400" />
  <sodipodi:namedview
     id="namedview398"
     pagecolor="#ffffff"
     bordercolor="#000000"
     borderopacity="0.25"
     inkscape:showpageshadow="2"
     inkscape:pageopacity="0.0"
     inkscape:pagecheckerboard="0"
     inkscape:deskcolor="#d1d1d1"
     showgrid="false"
     inkscape:zoom="3.231414"
     inkscape:cx="47.038231"
     inkscape:cy="45.800383"
     inkscape:window-width="1480"
     inkscape:window-height="774"
     inkscape:window-x="0"
     inkscape:window-y="38"
     inkscape:window-maximized="0"
     inkscape:current-layer="svg396" />
  <g
     id="g577"
     transform="matrix(2.9411765,0,0,2.6315789,-20.588235,-13.157895)">
    <path
       fill="#0277bd"
       d="M 41,5 H 7 l 3,34 14,4 14,-4 z"
       id="path388" />
    <path
       fill="#039be5"
       d="M 24,8 V 39.9 L 35.2,36.7 37.7,8 Z"
       id="path390" />
    <path
       fill="#ffffff"
       d="M 33.1,13 H 24 v 4 h 4.9 l -0.3,4 H 24 v 4 h 4.4 l -0.3,4.5 -4.1,1.4 v 4.2 L 31.9,32.5 32.6,21 v 0 z"
       id="path392" />
    <path
       fill="#eeeeee"
       d="m 24,13 v 4 h -8.9 l -0.3,-4 z m -4.6,8 0.2,4 H 24 v -4 z m 0.4,6 h -4 l 0.3,5.5 7.9,2.6 v -4.2 l -4.1,-1.4 z"
       id="path394" />
  </g>
</svg>
