<?xml version="1.0" encoding="UTF-8" standalone="no"?>
<svg
   viewBox="0 0 104.7772 104.8033"
   width="104.7772"
   height="104.8033"
   version="1.1"
   id="svg19"
   sodipodi:docname="html5_lg.svg"
   inkscape:version="1.2.1 (9c6d41e, 2022-07-14)"
   xmlns:inkscape="http://www.inkscape.org/namespaces/inkscape"
   xmlns:sodipodi="http://sodipodi.sourceforge.net/DTD/sodipodi-0.dtd"
   xmlns="http://www.w3.org/2000/svg"
   xmlns:svg="http://www.w3.org/2000/svg">
  <defs
     id="defs23" />
  <sodipodi:namedview
     id="namedview21"
     pagecolor="#ffffff"
     bordercolor="#000000"
     borderopacity="0.25"
     inkscape:showpageshadow="2"
     inkscape:pageopacity="0.0"
     inkscape:pagecheckerboard="0"
     inkscape:deskcolor="#d1d1d1"
     showgrid="false"
     inkscape:zoom="3.5565052"
     inkscape:cx="109.7988"
     inkscape:cy="76.057811"
     inkscape:window-width="819"
     inkscape:window-height="899"
     inkscape:window-x="0"
     inkscape:window-y="38"
     inkscape:window-maximized="0"
     inkscape:current-layer="svg19" />
  <linearGradient
     id="SNASnMitCxQrIYk4GDibta"
     x1="18.208"
     x2="34.159"
     y1="2.4130001"
     y2="46.236"
     gradientUnits="userSpaceOnUse">
    <stop
       offset="0"
       stop-color="#f09701"
       id="stop2" />
    <stop
       offset="1"
       stop-color="#e36001"
       id="stop4" />
  </linearGradient>
  <g
     id="g258"
     transform="matrix(3.1155048,0,0,2.772519,-22.382188,-13.862595)">
    <path
       fill="url(#SNASnMitCxQrIYk4GDibta)"
       d="m 7.192,7.176 2.627,29.77 c 0.109,1.237 0.97,2.28 2.164,2.621 l 10.643,3.041 c 0.898,0.257 1.849,0.257 2.747,0 l 10.643,-3.041 c 1.194,-0.341 2.055,-1.383 2.164,-2.621 L 40.807,7.176 C 40.911,6.006 39.99,5 38.816,5 H 9.184 C 8.01,5 7.089,6.006 7.192,7.176 Z"
       id="path7"
       style="fill:url(#SNASnMitCxQrIYk4GDibta)" />
    <path
       fill="#f09601"
       d="m 24,8 v 31.9 l 9.876,-2.822 c 0.797,-0.228 1.371,-0.924 1.443,-1.749 L 37.605,9.087 C 37.656,8.502 37.196,8 36.609,8 Z"
       id="path9" />
    <path
       fill="#ffffff"
       d="m 24,25 v -4 h 8.6 L 31.9,32.5 24,35.1 v -4.2 l 4.1,-1.4 0.3,-4.5 z m 8.9,-8 0.3,-4 H 24 v 4 z"
       id="path11" />
    <path
       fill="#d6e0e9"
       d="m 24,30.9 v 4.2 L 16.1,32.5 15.7,27 h 4 l 0.2,2.5 z M 19.1,17 H 24 v -4 h -9.1 l 0.7,12 H 24 v -4 h -4.6 z"
       id="path13" />
    <path
       d="m 33.2,13 -0.3,4 H 24 19.1 l 0.3,4 H 24 32.6 L 31.9,32.5 24,35.1 16.1,32.5 15.7,27 h 4 l 0.2,2.5 4.1,1.4 4.1,-1.4 0.3,-4.5 H 24 15.6 L 14.9,13 h 9.1 9.2 m 1.078,-1 H 33.2 24 14.9 13.84 l 0.062,1.058 0.7,12 0.055,0.942 h -0.032 l 0.078,1.073 0.4,5.5 0.049,0.668 0.636,0.209 7.9,2.6 0.312,0.103 0.313,-0.103 7.9,-2.6 0.644,-0.212 0.041,-0.677 0.7,-11.5 L 33.663,20 H 32.6 24 20.328 l -0.15,-2 H 24 h 8.9 0.928 l 0.069,-0.925 0.3,-4 z M 20.623,26 H 24 27.331 L 27.146,28.769 24,29.843 20.844,28.766 20.696,26.92 Z"
       opacity="0.05"
       id="path15" />
    <path
       d="m 33.2,13 -0.3,4 H 24 19.1 l 0.3,4 H 24 32.6 L 31.9,32.5 24,35.1 16.1,32.5 15.7,27 h 4 l 0.2,2.5 4.1,1.4 4.1,-1.4 0.3,-4.5 H 24 15.6 L 14.9,13 h 9.1 9.2 m 0.539,-0.5 H 33.2 24 14.9 14.37 l 0.031,0.529 0.7,12 0.027,0.471 H 15.6 24 27.866 L 27.624,29.134 24,30.372 20.372,29.133 20.198,26.96 20.161,26.5 h -0.461 -4 -0.538 l 0.039,0.536 0.4,5.5 0.024,0.334 0.318,0.105 7.9,2.6 0.157,0.051 0.156,-0.051 7.9,-2.6 0.322,-0.106 0.021,-0.339 0.7,-11.5 0.032,-0.53 H 32.6 24 19.864 l -0.225,-3 H 24 h 8.9 0.464 l 0.035,-0.463 0.3,-4 z"
       opacity="0.07"
       id="path17" />
  </g>
</svg>
