<?xml version="1.0" encoding="UTF-8" standalone="no"?>
<svg
   fill="#000000"
   viewBox="0 0 64 64"
   width="64px"
   height="64px"
   version="1.1"
   id="svg2073"
   sodipodi:docname="github_icn_wht.svg"
   inkscape:version="1.2.1 (9c6d41e, 2022-07-14)"
   xmlns:inkscape="http://www.inkscape.org/namespaces/inkscape"
   xmlns:sodipodi="http://sodipodi.sourceforge.net/DTD/sodipodi-0.dtd"
   xmlns="http://www.w3.org/2000/svg"
   xmlns:svg="http://www.w3.org/2000/svg">
  <defs
     id="defs2077" />
  <sodipodi:namedview
     id="namedview2075"
     pagecolor="#ffffff"
     bordercolor="#000000"
     borderopacity="0.25"
     inkscape:showpageshadow="2"
     inkscape:pageopacity="0.0"
     inkscape:pagecheckerboard="0"
     inkscape:deskcolor="#d1d1d1"
     showgrid="false"
     inkscape:zoom="3.6875"
     inkscape:cx="-2.8474576"
     inkscape:cy="33.627119"
     inkscape:window-width="1309"
     inkscape:window-height="456"
     inkscape:window-x="0"
     inkscape:window-y="38"
     inkscape:window-maximized="0"
     inkscape:current-layer="svg2073" />
  <path
     d="M 32,0 C 14.327384,0 0,14.327384 0,32 0,47.110154 10.476308,59.766154 24.56,63.12123 23.831384,62.947692 23.108924,62.75323 22.4,62.531692 V 55.2 c 0,0 -1.2,0.4 -2.8,0.4 -4.476308,0 -6.336,-3.993846 -6.8,-6 C 12.518154,48.377846 11.782154,47.219692 10.992,46.512 10.048,45.670154 9.6061538,45.667692 9.6,45.379692 9.5876924,44.775384 10.409846,44.8 10.8,44.8 c 2,0 3.516308,2.128 4.220308,3.228308 1.744,2.716308 3.616,3.171692 4.579692,3.171692 1.2,0 2.236308,-0.179692 2.950154,-0.524308 C 22.88,48.352 23.913846,46.281846 25.6,44.8 18.096,43.299692 12.8,38.995692 12.8,32 c 0,-3.603692 1.446154,-6.915692 3.856,-9.590154 C 16.409846,21.712 16,20.300308 16,18 c 0,-1.52 0.105843,-3.385846 0.8,-5.2 0,0 4.563692,0.032 8.867692,4.108308 C 27.654154,16.329846 29.779692,16 32,16 c 2.220308,0 4.345846,0.329846 6.332308,0.908308 C 42.636308,12.832 47.2,12.8 47.2,12.8 47.897846,14.614154 48,16.48 48,18 48,20.48 47.670154,21.926154 47.468308,22.550154 49.804308,25.2 51.2,28.460308 51.2,32 c 0,6.995692 -5.296,11.299692 -12.8,12.8 2.003692,1.76 3.2,4.323692 3.2,7.2 v 10.531692 c -0.708924,0.22277 -1.430154,0.416 -2.16,0.589538 C 53.523692,59.766154 64,47.110154 64,32 64,14.327384 49.672616,0 32,0 Z m 2.231384,63.913846 C 33.494154,63.965538 32.75077,64 32,64 c 0.75077,0 1.492924,-0.0357 2.231384,-0.08616 z m 4.889846,-0.71877 c -1.432614,0.326154 -2.900922,0.555078 -4.4,0.681848 1.499078,-0.12677 2.967386,-0.356924 4.4,-0.681848 z M 32,64 C 31.24923,64 30.505846,63.96554 29.768616,63.91384 30.507076,63.964308 31.24923,64 32,64 Z m -2.722462,-0.123076 c -1.497846,-0.12677 -2.967384,-0.355694 -4.398768,-0.681848 1.432614,0.324924 2.900922,0.555078 4.398768,0.681848 z"
     id="path2071"
     style="fill:#ffffff;stroke-width:1.23076" />
</svg>
