<?xml version="1.0" encoding="UTF-8" standalone="no"?>
<svg
   height="48"
   width="48"
   version="1.1"
   id="svg4"
   sodipodi:docname="icn_terminal_wht.svg"
   inkscape:version="1.2.1 (9c6d41e, 2022-07-14)"
   xmlns:inkscape="http://www.inkscape.org/namespaces/inkscape"
   xmlns:sodipodi="http://sodipodi.sourceforge.net/DTD/sodipodi-0.dtd"
   xmlns="http://www.w3.org/2000/svg"
   xmlns:svg="http://www.w3.org/2000/svg">
  <defs
     id="defs8" />
  <sodipodi:namedview
     id="namedview6"
     pagecolor="#ffffff"
     bordercolor="#000000"
     borderopacity="0.25"
     inkscape:showpageshadow="2"
     inkscape:pageopacity="0.0"
     inkscape:pagecheckerboard="0"
     inkscape:deskcolor="#d1d1d1"
     showgrid="false"
     inkscape:zoom="4.9166667"
     inkscape:cx="-2.3389831"
     inkscape:cy="24"
     inkscape:window-width="1309"
     inkscape:window-height="456"
     inkscape:window-x="0"
     inkscape:window-y="38"
     inkscape:window-maximized="0"
     inkscape:current-layer="svg4" />
  <path
     d="M 3.6,48 Q 2.16,48 1.08,46.65 0,45.3 0,43.5 V 4.5 Q 0,2.7 1.08,1.35 2.16,0 3.6,0 H 44.4 Q 45.84,0 46.92,1.35 48,2.7 48,4.5 v 39 q 0,1.8 -1.08,3.15 Q 45.84,48 44.4,48 Z m 0,-4.5 H 44.4 V 10.8 H 3.6 Z m 9.6,-5.4 -2.52,-3.15 6.18,-7.8 -6.24,-7.8 2.58,-3.15 8.76,10.95 z m 11.4,0.3 v -4.5 h 13.2 v 4.5 z"
     id="path2"
     style="stroke-width:1.34164;fill:#ffffff" />
</svg>
